<svg fill="none" xmlns="http://www.w3.org/2000/svg">
<path d="M117.644 142.253C117.644 125.145 106.867 114.041 89.8057 114.041C65.8539 114.041 49.0943 135.049 49.0943 157.858C49.0943 174.664 59.5699 185.768 76.6343 185.768C100.58 185.768 117.644 165.359 117.644 142.253ZM187.69 -6.85582e-05L148.178 225.084H104.473L105.968 208.278C94.2957 221.48 78.4284 228.987 59.8683 228.987C24.8408 228.987 0 201.676 0 162.36C0 114.041 35.3196 68.7246 82.9215 68.7246C101.777 68.7246 116.444 76.228 124.83 88.8313L140.094 -6.85582e-05H187.69Z" fill="black"/>
<path d="M297.525 72.9256L281.061 117.341C275.37 114.346 268.788 113.744 264.596 113.744C246.935 113.744 230.169 123.947 225.679 141.052L211.012 225.086H163.417L190.356 72.6296H233.764L232.268 90.3328C243.941 76.5293 259.805 68.7266 276.869 68.7266C285.252 68.7266 291.539 70.5253 297.525 72.9256Z" fill="black"/>
<path d="M394.151 140.754C394.151 123.945 383.971 112.844 366.608 112.844C342.062 112.844 325.598 133.247 325.598 156.961C325.598 173.766 335.476 184.568 352.839 184.568C377.683 184.568 394.151 164.162 394.151 140.754ZM276.507 160.864C276.507 109.54 318.113 68.7246 370.501 68.7246C413.308 68.7246 443.242 95.733 443.242 136.548C443.242 188.168 401.632 228.987 349.245 228.987C304.942 228.987 276.507 200.775 276.507 160.864" fill="black"/>
<path d="M904.284 134.45C904.58 131.751 904.881 129.647 904.881 128.746C904.881 119.144 899.794 109.842 881.828 109.842C863.868 109.842 850.995 120.042 844.114 134.45H904.284ZM863.566 188.471C877.938 188.471 890.811 183.068 900.388 175.266L929.725 205.878C910.27 221.782 886.921 228.987 864.468 228.987C820.464 228.987 791.727 199.575 791.727 159.062C791.727 107.738 830.641 68.7246 883.028 68.7246C928.23 68.7246 949.486 96.6372 949.486 129.048C949.486 140.754 946.193 155.156 942.598 165.359H838.129C839.322 179.767 848.004 188.471 863.566 188.471Z" fill="black"/>
<path d="M1079.15 72.9256L1062.68 117.341C1057 114.346 1050.41 113.744 1046.22 113.744C1028.56 113.744 1011.8 123.947 1007.3 141.052L992.636 225.086H945.04L971.98 72.6296H1015.39L1013.89 90.3328C1025.56 76.5293 1041.43 68.7266 1058.49 68.7266C1066.88 68.7266 1073.16 70.5253 1079.15 72.9256Z" fill="black"/>
<path d="M524.792 184.457C508.327 184.457 497.249 174.254 497.249 156.85C497.249 134.04 514.015 112.733 538.262 112.733C555.326 112.733 565.802 123.837 565.802 140.643C565.802 163.748 549.039 184.457 524.792 184.457ZM553.827 68.6167C535.566 68.6167 520.302 75.5184 508.928 87.2241L510.42 72.5164H467.016L426.905 300H474.5L479.95 268.426C484.01 244.905 481.699 220.725 473.255 198.411L464.75 175.93L490.528 207.16L490.666 206.368C498.751 220.172 513.713 228.879 532.873 228.879C578.373 228.879 614.591 184.161 614.591 134.938C614.591 95.0267 589.153 68.6167 553.827 68.6167" fill="black"/>
<path d="M696.273 184.457C679.809 184.457 668.73 174.254 668.73 156.85C668.73 134.04 685.496 112.733 709.74 112.733C726.808 112.733 737.283 123.837 737.283 140.643C737.283 163.748 720.521 184.457 696.273 184.457ZM725.309 68.6167C707.047 68.6167 691.783 75.5184 680.409 87.2241L681.902 72.5164H638.497L598.386 300H645.978L651.431 268.426C655.494 244.905 653.18 220.725 644.736 198.411L636.231 175.93L662.01 207.16L662.148 206.368C670.232 220.172 685.194 228.879 704.355 228.879C749.855 228.879 786.073 184.161 786.073 134.938C786.073 95.0267 760.635 68.6167 725.309 68.6167" fill="black"/>
<path d="M1054.25 175.563H1102.48L1094.02 223.914H1045.79L1054.25 175.563Z" fill="#2EBB55"/>
</svg>
