<svg width="113" height="40" viewBox="0 0 113 40" fill="none" xmlns="http://www.w3.org/2000/svg">
<path d="M16.1143 20.6175C16.1143 19.0303 15.1104 18.0002 13.5212 18.0002C11.2902 18.0002 9.72916 19.9491 9.72916 22.0653C9.72916 23.6244 10.7049 24.6545 12.2944 24.6545C14.5248 24.6545 16.1143 22.7611 16.1143 20.6175ZM22.6387 7.42017L18.9584 28.302H14.8874L15.0267 26.7429C13.9395 27.9676 12.4615 28.6641 10.7327 28.6641C7.47006 28.6641 5.15625 26.1303 5.15625 22.4829C5.15625 18.0002 8.4461 13.796 12.88 13.796C14.6363 13.796 16.0025 14.4921 16.7836 15.6614L18.2054 7.42017H22.6387Z" fill="black"/>
<path d="M32.8705 14.1883L31.3369 18.3089C30.8069 18.031 30.1938 17.9751 29.8034 17.9751C28.1583 17.9751 26.5966 18.9217 26.1784 20.5086L24.8122 28.3047H20.3789L22.8882 14.1608H26.9314L26.7921 15.8032C27.8794 14.5226 29.357 13.7987 30.9465 13.7987C31.7273 13.7987 32.313 13.9656 32.8705 14.1883Z" fill="black"/>
<path d="M41.8486 20.4784C41.8486 18.919 40.9004 17.8891 39.2831 17.8891C36.9968 17.8891 35.4632 19.782 35.4632 21.982C35.4632 23.5411 36.3834 24.5432 38.0007 24.5432C40.3148 24.5432 41.8486 22.65 41.8486 20.4784ZM30.8906 22.3441C30.8906 17.5826 34.7661 13.796 39.6457 13.796C43.633 13.796 46.4213 16.3017 46.4213 20.0882C46.4213 24.8772 42.5455 28.6641 37.6658 28.6641C33.5393 28.6641 30.8906 26.0467 30.8906 22.3441" fill="black"/>
<path d="M89.3905 19.8936C89.418 19.6432 89.4461 19.4479 89.4461 19.3644C89.4461 18.4736 88.9722 17.6106 87.2988 17.6106C85.6259 17.6106 84.4268 18.5569 83.7859 19.8936H89.3905ZM85.5978 24.9053C86.9364 24.9053 88.1355 24.4041 89.0275 23.6802L91.7602 26.5202C89.948 27.9957 87.7732 28.6641 85.6818 28.6641C81.583 28.6641 78.9062 25.9354 78.9062 22.1769C78.9062 17.4154 82.5309 13.796 87.4106 13.796C91.6209 13.796 93.6008 16.3855 93.6008 19.3924C93.6008 20.4784 93.2941 21.8145 92.9592 22.7611H83.2284C83.3396 24.0978 84.1482 24.9053 85.5978 24.9053Z" fill="black"/>
<path d="M105.675 14.1883L104.142 18.3089C103.612 18.031 102.998 17.9751 102.608 17.9751C100.963 17.9751 99.4016 18.9217 98.9831 20.5086L97.6169 28.3047H93.1836L95.6929 14.1608H99.7361L99.5968 15.8032C100.684 14.5226 102.162 13.7987 103.751 13.7987C104.532 13.7987 105.118 13.9656 105.675 14.1883Z" fill="black"/>
<path d="M54.0357 24.5462C52.5021 24.5462 51.4702 23.5997 51.4702 21.985C51.4702 19.8689 53.0318 17.8922 55.2903 17.8922C56.8798 17.8922 57.8556 18.9223 57.8556 20.4814C57.8556 22.625 56.2942 24.5462 54.0357 24.5462ZM56.7402 13.7994C55.0392 13.7994 53.6175 14.4397 52.558 15.5256L52.697 14.1611H48.6541L44.918 35.2656H49.3513L49.8589 32.3364C50.237 30.1543 50.0218 27.911 49.2353 25.8408L48.4431 23.7552L50.8442 26.6525L50.857 26.5791C51.6101 27.8597 53.0037 28.6674 54.7884 28.6674C59.0265 28.6674 62.4001 24.5188 62.4001 19.9522C62.4001 16.2495 60.0307 13.7994 56.7402 13.7994" fill="black"/>
<path d="M70.0123 24.5462C68.4787 24.5462 67.4468 23.5997 67.4468 21.985C67.4468 19.8689 69.0084 17.8922 71.2667 17.8922C72.8564 17.8922 73.8322 18.9223 73.8322 20.4814C73.8322 22.625 72.2708 24.5462 70.0123 24.5462ZM72.7168 13.7994C71.0158 13.7994 69.5941 14.4397 68.5346 15.5256L68.6736 14.1611H64.6307L60.8945 35.2656H65.3276L65.8355 32.3364C66.2139 30.1543 65.9984 27.911 65.2119 25.8408L64.4197 23.7552L66.8208 26.6525L66.8336 26.5791C67.5867 27.8597 68.9803 28.6674 70.765 28.6674C75.0031 28.6674 78.3767 24.5188 78.3767 19.9522C78.3767 16.2495 76.0073 13.7994 72.7168 13.7994" fill="black"/>
<path d="M103.354 23.7096H107.847L107.059 28.1953H102.566L103.354 23.7096Z" fill="#2EBB55"/>
</svg>
